# Blender 4.5.0
# www.blender.org
mtllib chairmodel1.mtl
o Cube
v -0.205000 0.450000 0.175000
v -0.205000 0.400000 -0.175000
v 0.205000 0.450000 0.175000
v 0.205000 0.400000 -0.175000
v -0.205000 0.450000 -0.225000
v 0.205000 0.450000 -0.225000
v -0.205000 0.900000 -0.275000
v 0.205000 0.900000 -0.275000
v -0.205000 0.400000 0.225000
v 0.205000 0.400000 0.225000
v 0.225000 0.400000 -0.175000
v 0.225000 0.450000 0.175000
v 0.225000 0.450000 -0.225000
v 0.225000 0.900000 -0.275000
v 0.225000 0.400000 0.225000
v -0.225000 0.400000 -0.175000
v -0.225000 0.450000 0.175000
v -0.225000 0.450000 -0.225000
v -0.225000 0.900000 -0.275000
v -0.225000 0.400000 0.225000
v -0.205000 0.360000 0.175000
v -0.205000 0.400000 0.135000
v -0.205000 0.380000 0.169641
v -0.205000 0.394641 0.155000
v 0.205000 0.400000 0.135000
v 0.205000 0.360000 0.175000
v 0.205000 0.394641 0.155000
v 0.205000 0.380000 0.169641
v -0.205000 0.410000 0.225000
v -0.205000 0.450000 0.185000
v -0.205000 0.430000 0.219641
v -0.205000 0.444641 0.205000
v 0.205000 0.450000 0.185000
v 0.205000 0.410000 0.225000
v 0.205000 0.444641 0.205000
v 0.205000 0.430000 0.219641
v 0.225000 0.360000 0.175000
v 0.225000 0.400000 0.135000
v 0.225000 0.440000 0.175000
v 0.225000 0.400000 0.215000
v 0.225000 0.380000 0.169641
v 0.225000 0.394641 0.155000
v 0.225000 0.450000 0.185000
v 0.225000 0.410000 0.225000
v 0.225000 0.444641 0.205000
v 0.225000 0.430000 0.219641
v -0.225000 0.400000 0.135000
v -0.225000 0.360000 0.175000
v -0.225000 0.400000 0.215000
v -0.225000 0.440000 0.175000
v -0.225000 0.394641 0.155000
v -0.225000 0.380000 0.169641
v -0.225000 0.410000 0.225000
v -0.225000 0.450000 0.185000
v -0.225000 0.430000 0.219641
v -0.225000 0.444641 0.205000
v -0.205000 0.490000 -0.175000
v -0.205000 0.450000 -0.135000
v -0.205000 0.470000 -0.169641
v -0.205000 0.455359 -0.155000
v 0.205000 0.450000 -0.135000
v 0.205000 0.490000 -0.175000
v 0.205000 0.455359 -0.155000
v 0.205000 0.470000 -0.169641
v -0.205000 0.371716 -0.196716
v -0.205000 0.440000 -0.225000
v -0.205000 0.391217 -0.210858
v -0.205000 0.416211 -0.221211
v 0.205000 0.440000 -0.225000
v 0.205000 0.371716 -0.196716
v 0.205000 0.416211 -0.221211
v 0.205000 0.391217 -0.210858
v 0.225000 0.490000 -0.175000
v 0.225000 0.450000 -0.135000
v 0.225000 0.410000 -0.175000
v 0.225000 0.450000 -0.215000
v 0.225000 0.470000 -0.169641
v 0.225000 0.455359 -0.155000
v 0.225000 0.400000 -0.185000
v 0.225000 0.440000 -0.225000
v 0.225000 0.405359 -0.205000
v 0.225000 0.420000 -0.219641
v -0.225000 0.450000 -0.135000
v -0.225000 0.490000 -0.175000
v -0.225000 0.450000 -0.215000
v -0.225000 0.410000 -0.175000
v -0.225000 0.455359 -0.155000
v -0.225000 0.470000 -0.169641
v -0.225000 0.440000 -0.225000
v -0.225000 0.400000 -0.185000
v -0.225000 0.420000 -0.219641
v -0.225000 0.405359 -0.205000
v -0.205000 0.900000 -0.265000
v -0.205000 0.890185 -0.253085
v 0.205000 0.890185 -0.253085
v 0.205000 0.900000 -0.265000
v 0.225000 0.900000 -0.265000
v 0.225000 0.890185 -0.253085
v -0.225000 0.890185 -0.253085
v -0.225000 0.900000 -0.265000
v -0.205000 0.000000 0.235000
v -0.205000 0.009933 0.223620
v -0.205000 0.002909 0.227525
v 0.205000 0.009933 0.223620
v 0.205000 0.000000 0.235000
v 0.205000 0.002909 0.227525
v -0.205000 0.009935 0.273758
v -0.205000 0.000000 0.265000
v -0.205000 0.002910 0.271707
v 0.205000 0.000000 0.265000
v 0.205000 0.009935 0.273758
v 0.205000 0.002910 0.271707
v 0.215000 0.000000 0.265000
v 0.225000 0.009936 0.273758
v 0.222071 0.002910 0.271707
v 0.215000 0.000000 0.235000
v 0.225000 0.009935 0.223620
v 0.222071 0.002910 0.227525
v -0.225000 0.009935 0.223620
v -0.215000 0.000000 0.235000
v -0.222071 0.002910 0.227525
v -0.215000 0.000000 0.265000
v -0.225000 0.009936 0.273758
v -0.222071 0.002910 0.271707
v 0.195000 0.000000 -0.235000
v 0.205000 0.009927 -0.223759
v 0.202071 0.002908 -0.227565
v -0.205000 0.009927 -0.223759
v -0.195000 0.000000 -0.235000
v -0.202071 0.002908 -0.227565
v 0.205000 0.009924 -0.272910
v 0.195000 0.000000 -0.265000
v 0.202071 0.002907 -0.271459
v -0.195000 0.000000 -0.265000
v -0.205000 0.009924 -0.272910
v -0.202071 0.002907 -0.271459
vn -0.0000 -0.1104 -0.9939
vn 1.0000 -0.0000 -0.0000
vn -1.0000 -0.0000 -0.0000
vn -0.0000 0.9659 0.2588
vn -0.0000 0.7071 0.7071
vn -0.0000 0.2588 0.9659
vn -0.0000 -0.9659 -0.2588
vn -0.0000 -0.7071 -0.7071
vn -0.0000 -0.2588 -0.9659
vn -0.0000 -1.0000 -0.0000
vn -0.0000 1.0000 -0.0000
vn -0.0000 -0.0000 1.0000
vn -0.0000 -0.5871 -0.8095
vn -0.0000 -0.3827 -0.9239
vn -0.0000 -0.1573 -0.9876
vn -0.7448 -0.5395 -0.3928
vn -0.3683 -0.4959 -0.7864
vn -0.0577 -0.2042 -0.9772
vn 0.7448 -0.5395 -0.3928
vn 0.3683 -0.4959 -0.7864
vn 0.0577 -0.2042 -0.9772
vn -0.0000 -0.0000 -1.0000
vn -0.3158 -0.7081 0.6315
vn 0.3158 -0.7081 0.6315
vn -0.0000 0.7719 0.6358
vn -0.0000 0.1915 0.9815
vn -0.0000 -0.4859 -0.8740
vn -0.0000 -0.9319 -0.3627
vn -0.0000 -0.9174 0.3980
vn -0.0000 -0.2802 0.9599
vn 0.3806 -0.9247 -0.0000
vn 0.9230 -0.3848 -0.0000
vn -0.0000 -0.4858 -0.8741
vn -0.3806 -0.9247 -0.0000
vn -0.9230 -0.3848 -0.0000
vn -0.0000 -0.1376 -0.9905
vn -0.0000 0.1240 0.9923
vn -0.0000 -0.4767 0.8791
vn -0.0000 -0.9313 0.3642
vn -0.0000 -0.9119 -0.4104
vn -0.0000 -0.2025 -0.9793
vn -0.3802 -0.9249 -0.0000
vn -0.9229 -0.3851 -0.0000
vn 0.3802 -0.9249 -0.0000
vn 0.9229 -0.3851 -0.0000
vn -0.0000 -0.1240 0.9923
vn -0.0000 0.2061 -0.9785
vt 0.625000 0.500000
vt 0.625000 0.250000
vt 0.375000 0.750000
vt 0.375000 0.746739
vt 0.375000 0.724492
vt 0.575000 0.750000
vt 0.375000 0.024469
vt 0.375000 0.000000
vt 0.375000 0.000000
vt 0.548077 0.000000
vt 0.875000 0.750000
vt 0.875000 0.750000
vt 0.875000 0.750000
vt 0.875000 0.750000
vt 0.625000 1.000000
vt 0.525000 1.000000
vt 0.525000 1.000000
vt 0.425000 1.000000
vt 0.425000 1.000000
vt 0.125000 0.721429
vt 0.375000 0.721429
vt 0.375000 0.735714
vt 0.125000 0.735714
vt 0.375000 0.750000
vt 0.125000 0.750000
vt 0.375000 0.750000
vt 0.125000 0.750000
vt 0.625000 0.750000
vt 0.608633 0.750000
vt 0.525000 0.750000
vt 0.525000 0.750000
vt 0.425000 0.750000
vt 0.425000 0.750000
vt 0.125000 0.735714
vt 0.125000 0.750000
vt 0.125000 0.500000
vt 0.375000 0.500000
vt 0.375000 1.000000
vt 0.625000 0.000000
vt 0.425000 0.000000
vt 0.525000 0.000000
vt 0.598205 0.000000
vt 0.625000 0.500000
vt 0.625000 0.500000
vt 0.625000 0.503261
vt 0.625000 0.525411
vt 0.425000 0.500000
vt 0.625000 0.500000
vt 0.625000 0.221429
vt 0.625000 0.235714
vt 0.625000 0.246172
vt 0.625000 0.250000
vt 0.425000 0.250000
vt 0.875000 0.528571
vt 0.625000 0.528572
vt 0.625000 0.514286
vt 0.875000 0.514286
vt 0.875000 0.500000
vt 0.875000 0.500000
vt 0.375000 0.250000
vt 0.375000 0.250000
vt 0.456053 0.250000
vt 0.456053 0.500000
vt 0.575000 0.250000
vt 0.575000 0.500000
vt 0.389294 0.250000
vt 0.475000 0.250000
vt 0.375000 0.500000
vt 0.389294 0.500000
vt 0.475000 0.500000
vt 0.575000 0.500000
vt 0.875000 0.500000
vt 0.875000 0.514286
vt 0.875000 0.500000
vt 0.375000 0.750000
vt 0.125000 0.750000
vt 0.125000 0.750000
vt 0.125000 0.750000
vt 0.375000 1.000000
vt 0.375000 0.500000
vt 0.126711 0.500000
vt 0.373375 0.500000
vt 0.131098 0.500000
vt 0.368902 0.500000
vt 0.368902 0.500000
vt 0.131098 0.500000
vt 0.126623 0.500000
vt 0.374211 0.499182
vt 0.375000 0.251593
vt 0.375000 0.250000
vt 0.375000 0.500000
vt 0.375000 0.250000
s 0
f 6/1/1 5/2/1 7/2/1 8/1/1
f 6/1/1 8/1/1 14/1/1 13/1/1
f 7/2/1 5/2/1 18/2/1 19/2/1
f 37/3/2 41/3/2 42/4/2 38/5/2 39/6/2 40/3/2
f 47/7/3 51/8/3 52/9/3 48/8/3 49/9/3 50/10/3
f 30/11/4 54/12/4 56/13/4 32/14/4
f 32/15/5 56/15/5 55/16/5 31/17/5
f 31/17/6 55/16/6 53/18/6 29/19/6
f 22/20/7 25/21/7 27/22/7 24/23/7
f 24/23/8 27/22/8 28/24/8 23/25/8
f 23/25/9 28/24/9 26/26/9 21/27/9
f 43/28/4 33/28/4 35/28/4 45/29/4
f 45/29/5 35/28/5 36/30/5 46/31/5
f 46/31/6 36/30/6 34/32/6 44/33/6
f 33/28/4 30/11/4 32/14/4 35/28/4
f 35/28/5 32/15/5 31/17/5 36/30/5
f 36/30/6 31/17/6 29/19/6 34/32/6
f 37/3/9 26/26/9 28/24/9 41/3/9
f 41/3/8 28/24/8 27/22/8 42/4/8
f 42/4/7 27/22/7 25/21/7 38/5/7
f 47/20/7 22/20/7 24/23/7 51/34/7
f 51/34/8 24/23/8 23/25/8 52/35/8
f 52/35/9 23/25/9 21/27/9 48/25/9
f 2/36/10 22/20/10 47/20/10 16/36/10
f 2/36/10 4/37/10 25/21/10 22/20/10
f 25/21/10 4/37/10 11/37/10 38/5/10
f 30/11/11 1/13/11 17/13/11 54/12/11
f 9/38/12 29/19/12 53/18/12 20/38/12
f 10/3/12 34/32/12 29/19/12 9/38/12
f 3/28/11 1/13/11 30/11/11 33/28/11
f 34/32/12 10/3/12 15/3/12 44/33/12
f 3/28/11 33/28/11 43/28/11 12/28/11
f 40/3/2 39/6/2 12/28/2 43/28/2 45/29/2 46/31/2 44/33/2 15/3/2
f 17/39/3 50/10/3 49/9/3 20/8/3 53/40/3 55/41/3 56/42/3 54/39/3
f 73/43/2 77/44/2 78/45/2 74/46/2 75/47/2 76/48/2
f 83/49/3 87/50/3 88/51/3 84/2/3 85/52/3 86/53/3
f 58/54/4 61/55/4 63/56/4 60/57/4
f 60/57/5 63/56/5 64/44/5 59/58/5
f 59/58/6 64/44/6 62/1/6 57/59/6
f 70/37/13 65/60/13 67/61/13 72/37/13
f 72/37/14 67/61/14 68/62/14 71/63/14
f 71/63/15 68/62/15 66/64/15 69/65/15
f 65/60/16 90/61/16 92/66/16 67/61/16
f 67/61/17 92/66/17 91/67/17 68/62/17
f 68/62/18 91/67/18 89/64/18 66/64/18
f 61/55/4 74/46/4 78/45/4 63/56/4
f 63/56/5 78/45/5 77/44/5 64/44/5
f 64/44/6 77/44/6 73/43/6 62/1/6
f 79/68/19 70/37/19 72/37/19 81/69/19
f 81/69/20 72/37/20 71/63/20 82/70/20
f 82/70/21 71/63/21 69/65/21 80/71/21
f 57/59/6 84/72/6 88/59/6 59/58/6
f 59/58/5 88/59/5 87/73/5 60/57/5
f 60/57/4 87/73/4 83/54/4 58/54/4
f 1/13/11 58/54/11 83/54/11 17/13/11
f 61/55/11 58/54/11 1/13/11 3/28/11
f 61/55/11 3/28/11 12/28/11 74/46/11
f 5/2/22 66/64/22 89/64/22 18/2/22
f 66/64/22 5/2/22 6/1/22 69/65/22
f 65/60/23 2/61/23 16/61/23 90/61/23
f 4/37/24 70/37/24 79/68/24 11/37/24
f 69/65/22 6/1/22 13/1/22 80/71/22
f 11/37/2 75/47/2 74/46/2 12/28/2 39/6/2 38/5/2
f 76/48/2 75/47/2 11/37/2 79/68/2 81/69/2 82/70/2 80/71/2 13/1/2
f 47/7/3 50/10/3 17/39/3 83/49/3 86/53/3 16/61/3
f 16/61/3 86/53/3 85/52/3 18/2/3 89/64/3 91/67/3 92/66/3 90/61/3
f 94/74/25 95/1/25 96/44/25 93/74/25
f 97/1/25 96/44/25 95/1/25 98/48/25
f 99/72/25 94/74/25 93/74/25 100/59/25
f 57/59/26 62/1/26 95/1/26 94/74/26
f 93/74/11 96/44/11 8/1/11 7/74/11
f 93/74/11 7/74/11 19/74/11 100/59/11
f 57/59/26 94/74/26 99/72/26 84/72/26
f 8/1/11 96/44/11 97/1/11 14/1/11
f 95/1/26 62/1/26 73/43/26 98/48/26
f 73/43/2 76/48/2 13/1/2 14/1/2 97/1/2 98/48/2
f 18/2/3 85/52/3 84/2/3 99/2/3 100/2/3 19/2/3
f 102/25/27 104/3/27 106/75/27 103/35/27
f 103/35/28 106/75/28 105/75/28 101/25/28
f 108/25/29 110/75/29 112/75/29 109/76/29
f 109/38/30 112/75/30 111/24/30 107/38/30
f 113/3/31 116/24/31 118/3/31 115/3/31
f 115/3/32 118/3/32 117/3/32 114/3/32
f 110/75/29 113/3/29 115/3/29 112/75/29
f 112/75/30 115/3/30 114/3/30 111/24/30
f 116/24/28 105/75/28 106/75/28 118/3/28
f 118/3/33 106/75/33 104/3/33 117/3/33
f 120/35/34 122/77/34 124/78/34 121/25/34
f 121/8/35 124/8/35 123/8/35 119/8/35
f 122/77/29 108/25/29 109/76/29 124/78/29
f 124/79/30 109/38/30 107/38/30 123/38/30
f 119/25/33 102/25/33 103/35/33 121/25/33
f 121/25/28 103/35/28 101/25/28 120/35/28
f 21/27/36 26/26/36 104/3/36 102/25/36
f 101/25/10 105/75/10 110/75/10 108/25/10
f 101/25/10 108/25/10 122/77/10 120/35/10
f 21/27/36 102/25/36 119/25/36 48/25/36
f 110/75/10 105/75/10 116/24/10 113/3/10
f 104/3/36 26/26/36 37/3/36 117/3/36
f 10/3/37 9/38/37 107/38/37 111/24/37
f 107/38/37 9/38/37 20/38/37 123/38/37
f 10/3/37 111/24/37 114/3/37 15/3/37
f 37/3/2 40/3/2 15/3/2 114/3/2 117/3/2
f 20/8/3 49/9/3 48/8/3 119/8/3 123/8/3
f 126/80/38 128/36/38 130/81/38 127/82/38
f 127/82/39 130/81/39 129/83/39 125/84/39
f 132/85/40 134/86/40 136/87/40 133/88/40
f 133/88/41 136/89/41 135/90/41 131/91/41
f 134/86/42 129/83/42 130/81/42 136/87/42
f 136/89/43 130/61/43 128/92/43 135/90/43
f 125/84/44 132/85/44 133/88/44 127/82/44
f 127/82/45 133/88/45 131/91/45 126/80/45
f 4/37/46 2/36/46 128/36/46 126/80/46
f 125/84/10 129/83/10 134/86/10 132/85/10
f 70/37/2 4/37/2 126/80/2 131/91/2
f 2/61/3 65/60/3 135/90/3 128/92/3
f 65/60/47 70/37/47 131/91/47 135/90/47
